<?xml version="1.0" encoding="utf-8"?>
<!-- Generator: Adobe Illustrator 21.1.0, SVG Export Plug-In . SVG Version: 6.00 Build 0)  -->
<svg version="1.1" id="Layer_1" xmlns="http://www.w3.org/2000/svg" xmlns:xlink="http://www.w3.org/1999/xlink" x="0px" y="0px"
	 viewBox="0 0 128 128" style="enable-background:new 0 0 128 128;" xml:space="preserve">
<style type="text/css">
	.st0{fill:#FFFFFF;}
</style>
<g>
	<path class="st0" d="M63.1,49c-1-0.6-2.2-1-3.6-1.2c-1.3-0.3-2.9-0.4-4.6-0.4c-0.9,0-1.7,0-2.5,0.1c-0.8,0.1-1.6,0.1-2.2,0.2v15.1
		h3.7c4.1,0,7.2-0.6,9.2-1.7c2.1-1.1,3.1-3.2,3.1-6.2c0-1.5-0.3-2.7-0.8-3.6C64.9,50.3,64.1,49.6,63.1,49z"/>
	<path class="st0" d="M0,0v128h128V0H0z M72.1,68.6c-4.3,2.8-10.3,4.2-18.2,4.2h-3.7v17.6H38.4V38.7c2.6-0.5,5.3-0.9,8.2-1.1
		c2.9-0.2,5.4-0.3,7.6-0.3c7.8,0,13.8,1.4,18,4.1c4.2,2.8,6.3,7.3,6.3,13.5C78.5,61.2,76.4,65.8,72.1,68.6z M82.6,90.7
		c-1.8,0-7-4.7-7-7c0-2.3,5.2-7,7-7c1.8,0,7,4.7,7,7S84.4,90.7,82.6,90.7z"/>
</g>
</svg>
