<?xml version="1.0" standalone="no"?>
<!DOCTYPE svg PUBLIC "-//W3C//DTD SVG 20010904//EN"
 "http://www.w3.org/TR/2001/REC-SVG-20010904/DTD/svg10.dtd">
<svg version="1.0" xmlns="http://www.w3.org/2000/svg"
 width="128.000000pt" height="128.000000pt" viewBox="0 0 128.000000 128.000000"
 preserveAspectRatio="xMidYMid meet">
<metadata>
Created by potrace 1.11, written by Peter Selinger 2001-2013
</metadata>
<g transform="translate(0.000000,128.000000) scale(0.100000,-0.100000)"
fill="#000000" stroke="none">
<path d="M0 640 l0 -640 640 0 640 0 0 640 0 640 -640 0 -640 0 0 -640z m696
239 c63 -31 89 -75 89 -149 0 -110 -70 -169 -211 -178 l-74 -5 0 -89 0 -89
-57 3 -58 3 0 260 0 260 35 7 c19 4 78 5 131 4 79 -2 106 -7 145 -27z m179
-399 c28 -29 29 -32 13 -57 -8 -14 -27 -33 -41 -41 -25 -15 -28 -15 -53 8 -44
42 -47 55 -18 89 33 39 62 39 99 1z"/>
<path d="M500 725 c0 -85 -2 -83 89 -66 50 10 71 31 71 73 0 47 -31 68 -100
68 l-60 0 0 -75z"/>
</g>
</svg>
